<svg width="348" height="184" viewBox="23 00 87 46" fill="none" xmlns="http://www.w3.org/2000/svg">
<path d="M70.3242 26.9918V8.72421H77.6306V12.2532H74.0397V15.8133H77.4853V19.2488H74.0397V23.4317H77.8693V26.9918H70.3242Z" fill="#2B2B2B"/>
<path d="M61.8762 26.9918V8.72421H65.5294V23.878H69.2864V26.9918H61.8762Z" fill="#2B2B2B"/>
<path d="M55.0369 26.9918V12.2324H52.8678V8.72421H60.8592V12.2324H58.6901V26.9918H55.0369Z" fill="#2B2B2B"/>
<path d="M47.99 27.1578C46.3225 27.1578 45.1186 26.7427 44.3783 25.9123C43.6449 25.082 43.2782 23.7603 43.2782 21.9474V20.1622H46.8899V22.4456C46.8899 22.8677 46.9521 23.1999 47.0767 23.442C47.2081 23.6773 47.433 23.7949 47.7513 23.7949C48.0834 23.7949 48.3117 23.6981 48.4363 23.5043C48.5677 23.3106 48.6334 22.9923 48.6334 22.5494C48.6334 21.9889 48.5781 21.5219 48.4674 21.1482C48.3567 20.7676 48.163 20.4078 47.8862 20.0688C47.6164 19.7228 47.2393 19.3215 46.755 18.8648L45.1152 17.3079C43.8905 16.1523 43.2782 14.8307 43.2782 13.343C43.2782 11.7861 43.638 10.5994 44.3576 9.78289C45.084 8.96639 46.1323 8.55814 47.5022 8.55814C49.1766 8.55814 50.3632 9.00445 51.062 9.89706C51.7677 10.7897 52.1206 12.1459 52.1206 13.9657H48.4051V12.7099C48.4051 12.4607 48.3325 12.267 48.1872 12.1286C48.0488 11.9902 47.8585 11.921 47.6164 11.921C47.3258 11.921 47.1113 12.0041 46.9729 12.1701C46.8414 12.3293 46.7757 12.5369 46.7757 12.7929C46.7757 13.0489 46.8449 13.3257 46.9833 13.6232C47.1217 13.9208 47.395 14.2633 47.8032 14.6508L49.91 16.6747C50.332 17.0761 50.7195 17.5016 51.0724 17.9514C51.4252 18.3942 51.7089 18.9132 51.9234 19.5083C52.1379 20.0964 52.2451 20.8161 52.2451 21.6672C52.2451 23.3832 51.9268 24.7291 51.2903 25.7047C50.6607 26.6735 49.5606 27.1578 47.99 27.1578Z" fill="#2B2B2B"/>
<path d="M37.8088 27.1578C36.2866 27.1578 35.1658 26.7323 34.4462 25.8812C33.7267 25.0232 33.3669 23.7638 33.3669 22.1031V8.72421H36.9163V21.9578C36.9163 22.2623 36.9336 22.5563 36.9682 22.84C37.0028 23.1168 37.0823 23.3452 37.2069 23.5251C37.3314 23.705 37.5321 23.7949 37.8088 23.7949C38.0925 23.7949 38.2966 23.7084 38.4211 23.5355C38.5457 23.3555 38.6218 23.1237 38.6495 22.84C38.6841 22.5563 38.7013 22.2623 38.7013 21.9578V8.72421H42.2507V22.1031C42.2507 23.7638 41.891 25.0232 41.1714 25.8812C40.4518 26.7323 39.331 27.1578 37.8088 27.1578Z" fill="#2B2B2B"/>
<path d="M22.9781 26.9918V8.72421H26.6105V15.2528H28.3334V8.72421H31.9658V26.9918H28.3334V18.7091H26.6105V26.9918H22.9781Z" fill="#2B2B2B"/>
</svg>
