<svg width="130.5" height="69" viewBox="0 0 87 46" fill="none" xmlns="http://www.w3.org/2000/svg">
<path d="M70.3242 26.9918V8.72421H77.6306V12.2532H74.0397V15.8133H77.4853V19.2488H74.0397V23.4317H77.8693V26.9918H70.3242Z" fill="#2B2B2B"/>
<path d="M61.8762 26.9918V8.72421H65.5294V23.878H69.2864V26.9918H61.8762Z" fill="#2B2B2B"/>
<path d="M55.0369 26.9918V12.2324H52.8678V8.72421H60.8592V12.2324H58.6901V26.9918H55.0369Z" fill="#2B2B2B"/>
<path d="M47.99 27.1578C46.3225 27.1578 45.1186 26.7427 44.3783 25.9123C43.6449 25.082 43.2782 23.7603 43.2782 21.9474V20.1622H46.8899V22.4456C46.8899 22.8677 46.9521 23.1999 47.0767 23.442C47.2081 23.6773 47.433 23.7949 47.7513 23.7949C48.0834 23.7949 48.3117 23.6981 48.4363 23.5043C48.5677 23.3106 48.6334 22.9923 48.6334 22.5494C48.6334 21.9889 48.5781 21.5219 48.4674 21.1482C48.3567 20.7676 48.163 20.4078 47.8862 20.0688C47.6164 19.7228 47.2393 19.3215 46.755 18.8648L45.1152 17.3079C43.8905 16.1523 43.2782 14.8307 43.2782 13.343C43.2782 11.7861 43.638 10.5994 44.3576 9.78289C45.084 8.96639 46.1323 8.55814 47.5022 8.55814C49.1766 8.55814 50.3632 9.00445 51.062 9.89706C51.7677 10.7897 52.1206 12.1459 52.1206 13.9657H48.4051V12.7099C48.4051 12.4607 48.3325 12.267 48.1872 12.1286C48.0488 11.9902 47.8585 11.921 47.6164 11.921C47.3258 11.921 47.1113 12.0041 46.9729 12.1701C46.8414 12.3293 46.7757 12.5369 46.7757 12.7929C46.7757 13.0489 46.8449 13.3257 46.9833 13.6232C47.1217 13.9208 47.395 14.2633 47.8032 14.6508L49.91 16.6747C50.332 17.0761 50.7195 17.5016 51.0724 17.9514C51.4252 18.3942 51.7089 18.9132 51.9234 19.5083C52.1379 20.0964 52.2451 20.8161 52.2451 21.6672C52.2451 23.3832 51.9268 24.7291 51.2903 25.7047C50.6607 26.6735 49.5606 27.1578 47.99 27.1578Z" fill="#2B2B2B"/>
<path d="M37.8088 27.1578C36.2866 27.1578 35.1658 26.7323 34.4462 25.8812C33.7267 25.0232 33.3669 23.7638 33.3669 22.1031V8.72421H36.9163V21.9578C36.9163 22.2623 36.9336 22.5563 36.9682 22.84C37.0028 23.1168 37.0823 23.3452 37.2069 23.5251C37.3314 23.705 37.5321 23.7949 37.8088 23.7949C38.0925 23.7949 38.2966 23.7084 38.4211 23.5355C38.5457 23.3555 38.6218 23.1237 38.6495 22.84C38.6841 22.5563 38.7013 22.2623 38.7013 21.9578V8.72421H42.2507V22.1031C42.2507 23.7638 41.891 25.0232 41.1714 25.8812C40.4518 26.7323 39.331 27.1578 37.8088 27.1578Z" fill="#2B2B2B"/>
<path d="M22.9781 26.9918V8.72421H26.6105V15.2528H28.3334V8.72421H31.9658V26.9918H28.3334V18.7091H26.6105V26.9918H22.9781Z" fill="#2B2B2B"/>
<path d="M61.2116 36.0159V32.2257H62.4569C62.7528 32.2257 62.9965 32.2745 63.1877 32.3719C63.379 32.4694 63.5198 32.6011 63.61 32.7672C63.7039 32.9332 63.7508 33.1209 63.7508 33.3303C63.7508 33.536 63.7057 33.7219 63.6155 33.888C63.5252 34.054 63.3845 34.1876 63.1932 34.2887C63.0019 34.3861 62.7564 34.4348 62.4569 34.4348H61.6664V36.0159H61.2116ZM61.6664 34.0504H62.446C62.7492 34.0504 62.964 33.9873 63.0903 33.8609C63.2202 33.731 63.2852 33.5541 63.2852 33.3303C63.2852 33.1029 63.2202 32.926 63.0903 32.7997C62.964 32.6697 62.7492 32.6048 62.446 32.6048H61.6664V34.0504Z" fill="#2B2B2B"/>
<path d="M58.6878 36.0808C58.316 36.0808 57.9894 35.9996 57.7078 35.8372C57.4299 35.6712 57.2115 35.4401 57.0527 35.1441C56.8975 34.8482 56.8199 34.507 56.8199 34.1208C56.8199 33.7346 56.8975 33.3953 57.0527 33.1029C57.2115 32.8069 57.4299 32.5759 57.7078 32.4098C57.9894 32.2438 58.316 32.1608 58.6878 32.1608C59.0631 32.1608 59.3898 32.2438 59.6677 32.4098C59.9492 32.5759 60.1676 32.8069 60.3228 33.1029C60.478 33.3953 60.5556 33.7346 60.5556 34.1208C60.5556 34.507 60.478 34.8482 60.3228 35.1441C60.1676 35.4401 59.9492 35.6712 59.6677 35.8372C59.3898 35.9996 59.0631 36.0808 58.6878 36.0808ZM58.6878 35.6802C58.9657 35.6802 59.2093 35.6188 59.4186 35.4961C59.6316 35.3697 59.7958 35.1911 59.9113 34.9601C60.0304 34.7254 60.09 34.4457 60.09 34.1208C60.09 33.7959 60.0304 33.518 59.9113 33.287C59.7958 33.056 59.6316 32.8791 59.4186 32.7564C59.2093 32.63 58.9657 32.5669 58.6878 32.5669C58.4098 32.5669 58.1644 32.63 57.9515 32.7564C57.7421 32.8791 57.5779 33.056 57.4588 33.287C57.3433 33.518 57.2855 33.7959 57.2855 34.1208C57.2855 34.4457 57.3433 34.7254 57.4588 34.9601C57.5779 35.1911 57.7421 35.3697 57.9515 35.4961C58.1644 35.6188 58.4098 35.6802 58.6878 35.6802Z" fill="#2B2B2B"/>
<path d="M55.0201 36.0159V32.5993H53.8886V32.2257H56.6064V32.5993H55.4749V36.0159H55.0201Z" fill="#2B2B2B"/>
<path d="M52.2995 36.0808C52.0215 36.0808 51.7797 36.0303 51.574 35.9292C51.3683 35.8282 51.2094 35.6874 51.0976 35.5069C50.9857 35.3264 50.9297 35.1171 50.9297 34.8788H51.4062C51.4062 35.0268 51.4404 35.164 51.509 35.2903C51.5776 35.4131 51.6769 35.5123 51.8068 35.5881C51.9403 35.6603 52.1046 35.6964 52.2995 35.6964C52.5557 35.6964 52.7542 35.6351 52.895 35.5123C53.0358 35.3896 53.1061 35.2362 53.1061 35.0521C53.1061 34.9005 53.0737 34.7796 53.0087 34.6893C52.9437 34.5955 52.8553 34.5197 52.7434 34.4619C52.6351 34.4042 52.5088 34.3536 52.3644 34.3103C52.2237 34.267 52.0757 34.2183 51.9205 34.1641C51.6281 34.0631 51.4116 33.9385 51.2708 33.7905C51.13 33.6389 51.0597 33.4422 51.0597 33.2004C51.0561 32.9982 51.103 32.8195 51.2004 32.6643C51.2979 32.5055 51.435 32.3828 51.6119 32.2961C51.7924 32.2059 52.0053 32.1608 52.2507 32.1608C52.4926 32.1608 52.7019 32.2059 52.8788 32.2961C53.0592 32.3864 53.1982 32.5109 53.2956 32.6697C53.3967 32.8286 53.449 33.009 53.4526 33.2112H52.9762C52.9762 33.1065 52.9491 33.0036 52.895 32.9026C52.8409 32.7979 52.7578 32.713 52.646 32.6481C52.5377 32.5831 52.4005 32.5506 52.2345 32.5506C52.0288 32.547 51.8591 32.5993 51.7256 32.7076C51.5956 32.8159 51.5307 32.9657 51.5307 33.157C51.5307 33.3195 51.5758 33.444 51.666 33.5306C51.7599 33.6173 51.8898 33.6895 52.0558 33.7472C52.2219 33.8014 52.4132 33.8645 52.6297 33.9367C52.8102 34.0017 52.9726 34.0775 53.117 34.1641C53.2613 34.2508 53.3732 34.3627 53.4526 34.4998C53.5357 34.637 53.5772 34.8121 53.5772 35.025C53.5772 35.2055 53.5302 35.377 53.4364 35.5394C53.3426 35.6982 53.2 35.8282 53.0087 35.9292C52.821 36.0303 52.5846 36.0808 52.2995 36.0808Z" fill="#2B2B2B"/>
<path d="M48.2352 34.6352V34.2508H50.3792V34.6352H48.2352Z" fill="#2B2B2B"/>
<path d="M44.5837 36.0159V32.2257H45.0385L47.0579 35.2633V32.2257H47.5127V36.0159H47.0579L45.0385 32.9784V36.0159H44.5837Z" fill="#2B2B2B"/>
<path d="M42.0599 36.0808C41.6881 36.0808 41.3615 35.9996 41.0799 35.8372C40.802 35.6712 40.5836 35.4401 40.4248 35.1441C40.2696 34.8482 40.192 34.507 40.192 34.1208C40.192 33.7346 40.2696 33.3953 40.4248 33.1029C40.5836 32.8069 40.802 32.5759 41.0799 32.4098C41.3615 32.2438 41.6881 32.1608 42.0599 32.1608C42.4352 32.1608 42.7619 32.2438 43.0398 32.4098C43.3213 32.5759 43.5397 32.8069 43.6949 33.1029C43.8501 33.3953 43.9277 33.7346 43.9277 34.1208C43.9277 34.507 43.8501 34.8482 43.6949 35.1441C43.5397 35.4401 43.3213 35.6712 43.0398 35.8372C42.7619 35.9996 42.4352 36.0808 42.0599 36.0808ZM42.0599 35.6802C42.3378 35.6802 42.5814 35.6188 42.7907 35.4961C43.0037 35.3697 43.1679 35.1911 43.2834 34.9601C43.4025 34.7254 43.4621 34.4457 43.4621 34.1208C43.4621 33.7959 43.4025 33.518 43.2834 33.287C43.1679 33.056 43.0037 32.8791 42.7907 32.7564C42.5814 32.63 42.3378 32.5669 42.0599 32.5669C41.7819 32.5669 41.5365 32.63 41.3236 32.7564C41.1142 32.8791 40.95 33.056 40.8309 33.287C40.7154 33.518 40.6576 33.7959 40.6576 34.1208C40.6576 34.4457 40.7154 34.7254 40.8309 34.9601C40.95 35.1911 41.1142 35.3697 41.3236 35.4961C41.5365 35.6188 41.7819 35.6802 42.0599 35.6802Z" fill="#2B2B2B"/>
<path d="M36.6055 36.0159V32.2257H37.0603L39.0797 35.2633V32.2257H39.5345V36.0159H39.0797L37.0603 32.9784V36.0159H36.6055Z" fill="#2B2B2B"/>
<path d="M9.09221 8.73643H17.8279V37.6202H9.09221V8.73643Z" fill="#2B2B2B"/>
</svg>
