<svg width="82" height="83" viewBox="0 0 82 83" fill="none" xmlns="http://www.w3.org/2000/svg">
<path d="M25.625 14.7671L56.375 32.5775" stroke="#334155" stroke-width="4" stroke-linecap="round" stroke-linejoin="round"/>
<path d="M71.75 27.6667C71.7488 26.4538 71.4324 25.2625 70.8328 24.2124C70.2331 23.1623 69.3711 22.2903 68.3333 21.6838L44.4167 7.85049C43.3779 7.24342 42.1995 6.92383 41 6.92383C39.8005 6.92383 38.6221 7.24342 37.5833 7.85049L13.6667 21.6838C12.6289 22.2903 11.7669 23.1623 11.1672 24.2124C10.5676 25.2625 10.2512 26.4538 10.25 27.6667V55.3334C10.2512 56.5463 10.5676 57.7376 11.1672 58.7877C11.7669 59.8378 12.6289 60.7099 13.6667 61.3163L37.5833 75.1497C38.6221 75.7567 39.8005 76.0763 41 76.0763C42.1995 76.0763 43.3779 75.7567 44.4167 75.1497L68.3333 61.3163C69.3711 60.7099 70.2331 59.8378 70.8328 58.7877C71.4324 57.7376 71.7488 56.5463 71.75 55.3334V27.6667Z" stroke="#334155" stroke-width="4" stroke-linecap="round" stroke-linejoin="round"/>
<path d="M11.275 24.2083L41 41.4999L70.725 24.2083" stroke="#334155" stroke-width="4" stroke-linecap="round" stroke-linejoin="round"/>
<path d="M41 76.0833V41.5" stroke="#334155" stroke-width="4" stroke-linecap="round" stroke-linejoin="round"/>
</svg>
