<?xml version="1.0"?>
<svg xmlns="http://www.w3.org/2000/svg" viewBox="0 0 64 64" width="512" height="512"><g id="outline"><path d="M18,60.451V61a1,1,0,0,0,1,1h4a1,1,0,0,0,1-1V59.771c7.082-3.111,13.269-8.095,18-12.741V61a1,1,0,0,0,1,1h4a1,1,0,0,0,1-1V56.816C58.828,46.889,61.857,31.833,61.982,31.19a1,1,0,0,0-1.559-1.006A38.891,38.891,0,0,0,48,45.558V40.523c2.214-2.651,3.545-4.555,3.782-4.9A.988.988,0,0,0,52,35.008a1,1,0,0,0-1.349-.939Q49.3,34.5,48,35.026V30.475A9.008,9.008,0,0,0,54,22V19c0-4.371-3.536-17-9-17s-9,12.629-9,17v3a9.008,9.008,0,0,0,6,8.475v7.546A69.6,69.6,0,0,0,24,54.1V48.384c5.332-2.07,10-9.09,10-14.384,0-3.463,0-14-7-14a7.217,7.217,0,0,0-2.86.545c-2.257-2.281-4.76-2-6.979.808A4.423,4.423,0,0,0,14,20c-4.122,0-7,5.346-7,13,0,6.178,6.663,12.8,11,15.085v5.6A49.712,49.712,0,0,0,3.475,41.12a1,1,0,0,0-1.418,1.211C5.375,51.785,13.967,57.974,18,60.451ZM22,60H20V48.9c.111.023.818.1,1,.1a7.491,7.491,0,0,0,1-.082Zm24,0H44V45c.709-.743,1.378-1.468,2-2.164ZM59.313,33.58C58.014,38.072,54.728,47.129,48,54.027V50.8C49.838,45.644,53.242,38.773,59.313,33.58ZM52,19v3a7,7,0,0,1-5.907,6.906,22.037,22.037,0,0,0,1.955-13.04,25.4,25.4,0,0,0-.7-3.383,20.3,20.3,0,0,1,2.014-3.537A28.64,28.64,0,0,1,52,19ZM45,4c1.134,0,2.306,1.217,3.358,3a19.073,19.073,0,0,0-1.916,2.853,18.333,18.333,0,0,0-3.065-5.1A2.532,2.532,0,0,1,45,4ZM38,22V19A28.794,28.794,0,0,1,42.081,6.3a19.717,19.717,0,0,1,3.985,9.833c.662,4.888-.227,9.692-2.3,12.75A7.007,7.007,0,0,1,38,22Zm8,8.941v4.964c-.678.316-1.343.652-2,1V30.941c.082.009.166.014.249.021.248.021.5.038.751.038A8.935,8.935,0,0,0,46,30.941ZM48.2,37.1a88.4,88.4,0,0,1-5.883,6.774c-.014.013-.026.027-.039.041C37.686,48.688,31.363,54.158,24,57.577v-.213C27.59,52.556,36.42,42.046,48.2,37.1ZM27,22c1.237,0,5,0,5,12,0,5.846-5.218,11.379-9.3,12.7A10.568,10.568,0,0,1,21,47c-.1,0-.178-.014-.267-.022a4.287,4.287,0,0,1-.82-.213,1.749,1.749,0,0,1-.591-.471c-1.737-2.165-.458-9.071.654-14.077C21.674,24.578,23.446,22,27,22Zm-6-1a2.3,2.3,0,0,1,1.409.656,10.672,10.672,0,0,0-2.65,4.08,17.338,17.338,0,0,0-1.326-2.756C19.336,21.7,20.236,21,21,21ZM16.661,44.883C12.929,42.094,9,37.164,9,33c0-6.374,2.1-11,5-11,1.8,0,3.176,2,4.732,6.871-.254.942-.487,1.917-.708,2.912C16.623,38.085,16.176,42.207,16.661,44.883ZM18,57.24v.844C14.381,55.716,8.47,51.1,5.156,44.512,8.5,46.752,14.277,51.2,18,57.24Z"/></g></svg>
