<svg width="66" height="65" viewBox="0 0 66 65" fill="none" xmlns="http://www.w3.org/2000/svg">
<path d="M46.5416 5.41675H19.4583C11.9794 5.41675 5.91663 11.4796 5.91663 18.9584V46.0417C5.91663 53.5206 11.9794 59.5834 19.4583 59.5834H46.5416C54.0205 59.5834 60.0833 53.5206 60.0833 46.0417V18.9584C60.0833 11.4796 54.0205 5.41675 46.5416 5.41675Z" stroke="#334155" stroke-width="4" stroke-linecap="round" stroke-linejoin="round"/>
<path d="M43.8333 30.7938C44.1676 33.0478 43.7826 35.3498 42.7331 37.3724C41.6836 39.395 40.0231 41.0352 37.9877 42.0596C35.9524 43.0841 33.6458 43.4407 31.3961 43.0787C29.1464 42.7166 27.0681 41.6545 25.4568 40.0432C23.8456 38.432 22.7834 36.3537 22.4214 34.104C22.0594 31.8543 22.416 29.5477 23.4404 27.5123C24.4649 25.477 26.1051 23.8165 28.1276 22.767C30.1502 21.7175 32.4522 21.3325 34.7062 21.6668C37.0054 22.0077 39.134 23.079 40.7775 24.7226C42.421 26.3661 43.4924 28.4947 43.8333 30.7938Z" stroke="#334155" stroke-width="4" stroke-linecap="round" stroke-linejoin="round"/>
<path d="M47.8959 17.6042H47.9217" stroke="#334155" stroke-width="4" stroke-linecap="round" stroke-linejoin="round"/>
</svg>
