<svg width="134" height="111" viewBox="0 0 134 111" fill="none" xmlns="http://www.w3.org/2000/svg">
<path d="M93.4963 6.85288L78.2877 22.282C77.7127 22.8654 77.7127 23.7695 78.2877 24.3529L81.9964 28.1154C82.5714 28.6987 83.4627 28.6987 84.0377 28.1154L93.4963 18.5195C94.0713 17.9362 94.9626 17.9362 95.5376 18.5195L104.996 28.1154C105.571 28.6987 106.463 28.6987 107.038 28.1154L110.746 24.3529C111.321 23.7695 111.321 22.8654 110.746 22.282L95.5376 6.85288C94.9626 6.29871 94.0426 6.29871 93.4963 6.85288Z" fill="#334155"/>
<path d="M93.4963 63.1485L78.2877 47.7193C77.7127 47.136 77.7127 46.2318 78.2877 45.6485L81.9964 41.886C82.5714 41.3027 83.4627 41.3027 84.0377 41.886L93.4963 51.4818C94.0713 52.0652 94.9626 52.0652 95.5376 51.4818L104.996 41.886C105.571 41.3027 106.463 41.3027 107.038 41.886L110.746 45.6485C111.321 46.2318 111.321 47.136 110.746 47.7193L95.5376 63.1485C94.9626 63.7027 94.0426 63.7027 93.4963 63.1485Z" fill="#334155"/>
<path d="M117.785 29.4568L122.213 33.9485C122.788 34.5318 122.788 35.436 122.213 36.0193L117.785 40.511C117.21 41.0943 116.319 41.0943 115.744 40.511L111.317 36.0193C110.742 35.436 110.742 34.5318 111.317 33.9485L115.744 29.4568C116.319 28.9027 117.239 28.9027 117.785 29.4568Z" fill="#334155"/>
<path d="M73.2228 29.4568L77.6502 33.9485C78.2252 34.5318 78.2252 35.436 77.6502 36.0193L73.2228 40.511C72.6478 41.0943 71.7565 41.0943 71.1815 40.511L66.754 36.0193C66.179 35.436 66.179 34.5318 66.754 33.9485L71.1815 29.4568C71.7565 28.9027 72.6765 28.9027 73.2228 29.4568Z" fill="#334155"/>
<path d="M95.5083 28.8181L100.597 33.9807C101.172 34.564 101.172 35.4682 100.597 36.0515L95.5083 41.214C94.9333 41.7974 94.042 41.7974 93.467 41.214L88.3783 36.0515C87.8033 35.4682 87.8033 34.564 88.3783 33.9807L93.467 28.8181C94.042 28.2348 94.962 28.2348 95.5083 28.8181Z" fill="#334155"/>
<path d="M35.2712 87.4968C34.5274 87.5048 33.8096 87.2205 33.2694 86.7039C32.7292 86.1873 32.4089 85.4788 32.376 84.7281C32.3698 84.5968 32.3575 84.2437 32.0584 84.2437C31.9351 84.2437 31.8302 84.3156 31.71 84.4281C31.3647 84.75 30.9268 85.0718 30.2917 85.0718C29.968 85.0649 29.6487 84.9949 29.3512 84.8656C27.7017 84.1968 27.6801 83.0593 27.7448 82.6C27.7633 82.4812 27.7664 82.35 27.6832 82.2562L27.5845 82.1625H27.4797C27.3964 82.1625 27.3101 82.2 27.1929 82.2843C26.7893 82.5946 26.2999 82.7694 25.7931 82.7843C25.5257 82.7816 25.2612 82.7286 25.013 82.6281C22.83 81.7843 23.0088 79.7281 23.1106 79.1093C23.126 78.9812 23.0952 78.8843 23.0181 78.8218L22.8639 78.6968L22.719 78.8312C22.3007 79.2383 21.7426 79.4656 21.1619 79.4656C20.5655 79.4672 19.9928 79.2296 19.5696 78.8048C19.1464 78.38 18.9074 77.8028 18.9049 77.2C18.9049 75.95 19.9163 74.9437 21.1619 74.9437C22.2843 74.9437 23.2432 75.7875 23.385 76.9125L23.4652 77.5218L23.8043 77.0062C23.8352 76.95 24.7509 75.5687 26.4313 75.5687C26.7458 75.5687 27.0788 75.6187 27.4057 75.725C28.7438 76.1312 28.972 77.35 29.0059 77.85C29.0306 78.1437 29.2372 78.1625 29.2834 78.1625C29.3975 78.1625 29.4807 78.0875 29.5393 78.0218C29.7556 77.7972 30.0146 77.6192 30.3008 77.4983C30.5869 77.3775 30.8942 77.3164 31.2043 77.3187C31.599 77.3187 32.0152 77.4125 32.4438 77.6C34.5713 78.5156 33.6124 81.2187 33.597 81.2468C33.4182 81.6968 33.4089 81.8937 33.5816 82.0093L33.6648 82.05H33.7265C33.819 82.05 33.9423 82.0062 34.1397 81.9406C34.4264 81.8406 34.8643 81.6906 35.2712 81.6906C36.0347 81.6938 36.7663 82.0002 37.3085 82.5438C37.8506 83.0875 38.1599 83.8248 38.1696 84.5968C38.1647 85.3698 37.8568 86.1093 37.3134 86.653C36.77 87.1967 36.0356 87.5001 35.2712 87.4968ZM57.7857 74.4625C54.2769 71.4 46.1677 64.3375 43.9693 62.6812C42.7175 61.7375 41.8573 61.2375 41.108 61.0156C40.6527 60.8726 40.1788 60.7989 39.702 60.7968C39.1408 60.7968 38.5427 60.8968 37.9137 61.0937C36.4953 61.5468 35.0832 62.6718 33.7142 63.7625L33.6432 63.8187C32.3667 64.8312 31.0532 65.8812 30.0543 66.1C29.6191 66.1996 29.1746 66.251 28.7284 66.2531C27.6122 66.2531 26.6102 65.9281 26.2309 65.4468C26.1692 65.3687 26.2093 65.2406 26.3542 65.0562L26.3789 65.0312L29.4622 61.6968C31.8765 59.2781 34.1643 56.9906 39.4214 56.8687H39.6835C42.958 56.8687 46.2202 58.3343 46.5902 58.5062C49.5225 59.9709 52.7438 60.7443 56.0128 60.7687C59.3305 60.7687 62.7592 59.9468 66.3543 58.2843C65.9474 57.9423 65.531 57.612 65.1056 57.2937C61.9452 58.6687 58.9297 59.3562 56.0221 59.3562C53.0559 59.3562 50.0867 58.6406 47.2099 57.2312C47.0558 57.1625 43.4482 55.4593 39.6866 55.45C39.5879 55.45 39.4862 55.45 39.3906 55.4562C34.9691 55.5593 32.4839 57.1312 30.8127 58.5062C29.1847 58.5468 27.7849 58.9375 26.5331 59.2875C25.42 59.6 24.458 59.8687 23.5145 59.8656C23.1291 59.8656 22.4353 59.8343 22.3737 59.8281C21.2945 59.7968 15.8524 58.4625 11.5265 56.8218C11.0856 57.1343 10.6632 57.4562 10.2469 57.7906C14.7671 59.6437 20.2677 61.0812 22.0006 61.1937C22.4847 61.225 22.9965 61.2781 23.5145 61.2781C24.6615 61.2781 25.8085 60.9562 26.9185 60.6437C27.5753 60.4593 28.2937 60.2593 29.0522 60.1125L28.4478 60.7187L25.3121 64.1156C25.0654 64.3656 24.5289 65.0343 24.8804 65.8562C25.0637 66.2341 25.3505 66.5508 25.7067 66.7687C26.456 67.275 27.7942 67.6125 29.0368 67.6156C29.5054 67.6156 29.9525 67.5687 30.3626 67.4781C31.6792 67.1812 33.0574 66.0781 34.522 64.9156C35.6844 63.9906 37.3371 62.8156 38.6012 62.4718C38.9736 62.3717 39.3568 62.3192 39.7421 62.3156C39.84 62.3131 39.9379 62.3183 40.035 62.3312C40.8675 62.4375 41.6784 62.7218 43.1276 63.8062C45.7022 65.7437 57.0982 75.7281 57.2061 75.825C57.2122 75.8312 57.9399 76.4593 57.8844 77.5031C57.8628 78.0843 57.5452 78.6031 56.9779 78.9593C56.535 79.2566 56.0171 79.4193 55.4856 79.4281C55.0184 79.4272 54.5609 79.2929 54.1659 79.0406C54.1227 79.0093 50.2192 75.425 48.7824 74.2187C48.5542 74.0312 48.3322 73.8593 48.1041 73.8593C48.0475 73.8587 47.9915 73.871 47.9402 73.8953C47.889 73.9197 47.8438 73.9555 47.8081 74C47.583 74.2812 47.8389 74.6625 48.1318 74.9187L52.6952 79.5125C52.7013 79.5125 53.2625 80.0437 53.3242 80.7468C53.3612 81.5093 52.9973 82.1437 52.245 82.6406C51.7682 82.9763 51.204 83.1622 50.6232 83.1749C50.1624 83.1732 49.7123 83.0352 49.3282 82.7781L48.6683 82.1343C47.5953 81.0441 46.4846 79.9924 45.3383 78.9812C45.1163 78.8 44.882 78.6312 44.6569 78.6312C44.6031 78.6298 44.5497 78.6396 44.4998 78.66C44.4499 78.6804 44.4048 78.711 44.3671 78.75C44.2653 78.8656 44.1944 79.0718 44.4534 79.4125C44.5235 79.505 44.6008 79.5918 44.6847 79.6718L48.0085 83.4156C48.0393 83.4468 48.693 84.2281 48.0825 85.0125L47.9653 85.1625C47.8685 85.2685 47.7655 85.3687 47.657 85.4625C47.0897 85.9312 46.3312 85.975 46.0321 85.975C45.8802 85.9766 45.7285 85.964 45.5788 85.9375C45.252 85.8812 45.03 85.7875 44.9252 85.6593L44.8851 85.6187C44.7001 85.4312 43.0289 83.7156 41.6353 82.5562C41.4533 82.4 41.2252 82.2125 40.9877 82.2125C40.9321 82.2119 40.8769 82.2234 40.8259 82.246C40.7749 82.2686 40.7292 82.3019 40.6917 82.3437C40.4142 82.6437 40.8274 83.0937 41.0001 83.2593L43.8367 86.3937C43.8141 86.4638 43.7797 86.5293 43.735 86.5875C43.6332 86.725 43.291 87.0718 42.2581 87.2C42.1333 87.2158 42.0076 87.2231 41.8819 87.2218C40.8182 87.2218 39.6866 86.7093 39.1007 86.3968C39.365 85.8344 39.502 85.2195 39.5016 84.5968C39.4987 84.0249 39.382 83.4593 39.1586 82.9338C38.9352 82.4084 38.6096 81.9337 38.2011 81.5381C37.7927 81.1425 37.3097 80.834 36.7809 80.6309C36.2522 80.4279 35.6884 80.3345 35.1232 80.3562C35.1973 79.2875 35.0462 77.2625 32.9742 76.375C32.4157 76.124 31.8124 75.991 31.2013 75.9843C30.7511 75.9843 30.3163 76.0625 29.9062 76.2187C29.4734 75.3785 28.7298 74.7451 27.8373 74.4562C27.3477 74.2831 26.8329 74.1933 26.3142 74.1906C25.4508 74.1906 24.6584 74.4406 23.9492 74.9468C23.6126 74.5283 23.1882 74.1907 22.7067 73.9583C22.2252 73.7259 21.6986 73.6046 21.165 73.6031C20.2192 73.6044 19.3116 73.9802 18.6367 74.65C17.7517 73.9718 14.2429 71.7437 4.86342 69.6093C4.14825 69.4273 3.43688 69.2304 2.72975 69.0187C2.6243 69.5288 2.54506 70.0441 2.49233 70.5625L4.55817 71.0531C14.1412 73.1843 17.3108 75.4 17.8442 75.8187C17.6618 76.2559 17.5675 76.7255 17.5667 77.2C17.5692 77.7314 17.6873 78.2558 17.9126 78.7358C18.138 79.2159 18.4651 79.6398 18.8707 79.9775C19.2763 80.3152 19.7504 80.5583 20.2594 80.6897C20.7684 80.821 21.2997 80.8373 21.8156 80.7375C22.1116 82.1968 23.0674 83.3031 24.5258 83.8718C24.9337 84.0333 25.3674 84.1181 25.8054 84.1218C26.0829 84.1218 26.3573 84.0843 26.6256 84.0156C26.8907 84.7031 27.4951 85.5562 28.8517 86.1031C29.2987 86.2908 29.7769 86.3905 30.2608 86.3968C30.637 86.3968 31.0039 86.3281 31.3554 86.2C31.6782 86.9797 32.222 87.6454 32.9183 88.1131C33.6146 88.5808 34.4323 88.8296 35.2682 88.8281C36.409 88.8343 37.5067 88.3687 38.3052 87.5468C38.9867 87.925 40.4266 88.6125 41.8912 88.6125C42.0762 88.6125 42.255 88.6062 42.4307 88.5812C43.8799 88.3968 44.5552 87.8312 44.8635 87.3875C44.9192 87.3103 44.9687 87.2288 45.0115 87.1437C45.3507 87.2437 45.733 87.325 46.1616 87.325C46.9478 87.325 47.7063 87.0562 48.4741 86.4968C49.2264 85.9531 49.7629 85.1718 49.8431 84.5062V84.475C50.099 84.5281 50.358 84.5562 50.617 84.5562C51.4341 84.5562 52.2419 84.2999 53.0004 83.7999C54.4804 82.8312 54.7332 81.5656 54.7086 80.7375C55.2257 80.8458 55.759 80.848 56.277 80.7439C56.795 80.6398 57.2871 80.4314 57.7241 80.1312C58.1616 79.8654 58.5303 79.4977 58.7995 79.0586C59.0687 78.6194 59.2307 78.1215 59.2719 77.6062C59.3254 76.8904 59.1526 76.1758 58.7786 75.5656C61.2576 74.4968 66.9062 72.4312 73.5632 70.9312C73.521 70.4154 73.4521 69.9022 73.3566 69.3937C68.0193 70.5748 62.8062 72.27 57.7888 74.4562L57.7857 74.4625ZM73.5817 72.0781C73.5817 84.6625 57.6532 94.8687 38.0093 94.8687C18.3622 94.8687 2.43375 84.6625 2.43375 72.0781C2.43375 59.4906 18.3592 49.2875 38.0123 49.2875C57.6562 49.2875 73.5817 59.4906 73.5817 72.0781ZM75 72.0906C75 58.7406 58.4302 47.8562 38 47.8562C17.5698 47.8562 1.00617 58.7406 1.00617 72.0937L1 73.5125C1 87.6781 15.4762 99.1468 37.9969 99.1468C60.6502 99.1468 74.9969 87.6781 74.9969 73.5093L75 72.0906Z" fill="#334155"/>
</svg>
