<svg width="66" height="70" viewBox="0 0 66 70" fill="none" xmlns="http://www.w3.org/2000/svg">
<path d="M8.9282 52.6992C4.44648 47.2896 1.76794 40.357 1.76794 32.794C1.76794 15.5499 15.7558 1.56201 33 1.56201C50.2441 1.56201 64.232 15.5499 64.232 32.794C64.232 50.0382 50.2441 64.0261 33 64.0261C28.8509 64.0261 24.8943 63.2208 21.2705 61.7502L6.17964 68.0001M8.9107 52.6817L6.16214 68.0001M23.7214 14.0793C23.1612 14.0793 22.6185 14.0793 22.0583 14.0793C21.8832 14.0793 21.7256 14.1143 21.5681 14.2194C20.2025 15.1823 19.1171 16.3902 18.4169 17.9133C17.524 19.804 17.3314 21.7998 17.559 23.8481C17.6641 24.7584 17.7691 25.6863 18.1718 26.5266C20.7628 32.0763 24.2116 36.9957 28.8509 41.0397C32.4923 44.2259 36.5538 46.6769 41.1406 48.2175C42.051 48.5151 42.9613 48.9002 43.9592 48.8652C45.0621 48.8302 46.1475 48.7427 47.2154 48.4976C48.7385 48.165 50.1741 47.6223 51.3645 46.5894C53.2203 44.9787 53.903 42.8954 53.798 40.497C53.7805 40.0593 53.6054 39.8493 53.2378 39.6392C51.0144 38.4662 48.8086 37.2583 46.5852 36.0503C46.2351 35.8577 45.8674 35.7002 45.4648 35.6126C44.887 35.4901 44.3794 35.6651 44.1343 36.0853C43.9942 36.3129 43.8191 36.5055 43.6441 36.7156C42.6287 37.836 41.6308 38.9739 40.6154 40.0944C40.4753 40.2694 40.3528 40.3044 40.1252 40.2344C36.6064 39.0264 33.4376 37.2408 30.8466 34.5272C29.131 32.7415 27.853 30.6757 27.0302 28.3298C26.8376 27.7871 26.8376 27.3845 27.3453 27.0343C27.6429 26.8242 27.853 26.5091 28.1331 26.264C28.7984 25.7038 29.1835 24.951 29.4986 24.1632C29.8312 23.3579 29.9013 22.6051 29.4636 21.7473C28.2206 19.3314 27.0827 16.8629 25.9097 14.412C25.7697 14.1143 25.6121 14.0443 25.3145 14.0443C24.7718 14.0968 24.2466 14.0793 23.7214 14.0793Z" stroke="#334155" stroke-width="3" stroke-miterlimit="10" stroke-linecap="round"/>
</svg>
